<svg height="512" viewBox="0 0 512 512" width="512" xmlns="http://www.w3.org/2000/svg" xmlns:xlink="http://www.w3.org/1999/xlink"><linearGradient id="linear-gradient" gradientUnits="userSpaceOnUse" x1="140.655" x2="371.345" y1="556.655" y2="325.966"><stop offset=".004" stop-color="#f9cc5c"/><stop offset="1" stop-color="#fcebbe"/></linearGradient><linearGradient id="linear-gradient-2" gradientUnits="userSpaceOnUse" x1="168.402" x2="343.598" y1="262.794" y2="87.598"><stop offset=".004" stop-color="#fbe09d"/><stop offset=".366" stop-color="#fce9ba"/><stop offset=".763" stop-color="#fef2d4"/><stop offset="1" stop-color="#fef5de"/></linearGradient><linearGradient id="linear-gradient-3" gradientUnits="userSpaceOnUse" x1="140.655" x2="371.345" y1="556.655" y2="325.965"><stop offset=".004" stop-color="#f18033"/><stop offset="1" stop-color="#f7b384"/></linearGradient><linearGradient id="linear-gradient-4" gradientUnits="userSpaceOnUse" x1="168" x2="344" y1="216" y2="40"><stop offset=".004" stop-color="#f18033"/><stop offset=".277" stop-color="#f18236"/><stop offset=".483" stop-color="#f28840"/><stop offset=".667" stop-color="#f39250"/><stop offset=".838" stop-color="#f5a067"/><stop offset="1" stop-color="#f7b384"/></linearGradient><linearGradient id="linear-gradient-5" x1="183.031" x2="328.969" xlink:href="#linear-gradient-3" y1="151.031" y2="5.094"/><linearGradient id="linear-gradient-6" gradientUnits="userSpaceOnUse" x1="233.373" x2="278.627" y1="438.627" y2="393.373"><stop offset=".004" stop-color="#9ec645"/><stop offset=".331" stop-color="#9fc748"/><stop offset=".539" stop-color="#a4ca50"/><stop offset=".714" stop-color="#acce5f"/><stop offset=".812" stop-color="#b2d26b"/></linearGradient><g id="_09-boy" data-name="09-boy"><g id="filled_outline" data-name="filled outline"><path d="m288 336v-64h-64v64l-106.413 23.647a48 48 0 0 0 -37.587 46.853v89.5h352v-89.5a48 48 0 0 0 -37.587-46.857z" fill="url(#linear-gradient)"/><circle cx="384" cy="192" fill="#fbe09d" r="32"/><circle cx="128" cy="192" fill="#fbe09d" r="32"/><path d="m144 112h224a0 0 0 0 1 0 0v80a112 112 0 0 1 -112 112 112 112 0 0 1 -112-112v-80a0 0 0 0 1 0 0z" fill="url(#linear-gradient-2)"/><path d="m256 176-16 32h16" fill="#f4995b"/><path d="m394.413 359.647-62.481-13.884-75.932 54.237-75.932-54.237-62.481 13.884a48 48 0 0 0 -37.587 46.853v89.5h352v-89.5a48 48 0 0 0 -37.587-46.853z" fill="url(#linear-gradient-3)"/><path d="m368 112 64 16s-96 32-176 32-176-32-176-32l64-16z" fill="url(#linear-gradient-4)"/><path d="m368 112h-224v-47.991a48 48 0 0 1 54.788-47.518l57.212 8.174 57.212-8.174a48 48 0 0 1 54.788 47.518z" fill="url(#linear-gradient-5)"/><g fill="#f9cc5c"><path d="m384 336-128 80v-16l64-80z"/><path d="m128 336 128 80v-16l-64-80z"/><path d="m272 416s48 16 64 80h-48s0-64-32-64z"/><path d="m240 416s-48 16-64 80h48s0-64 32-64z"/></g><circle cx="256" cy="416" fill="url(#linear-gradient-6)" r="32"/><path d="m298.46 234.152a12.014 12.014 0 0 0 -16.316-4.626c-.134.074-13.598 7.474-26.144 7.474-12.433 0-25.767-7.266-26.137-7.47a12 12 0 0 0 -11.746 20.929c1.918 1.079 19.277 10.541 37.883 10.541s35.965-9.462 37.883-10.541a11.987 11.987 0 0 0 4.577-16.307z"/><path d="m430.8 368.961a60.221 60.221 0 0 0 -33.786-21.025l-6.985-1.553.331-.207a12 12 0 0 0 -3.45-21.818l-64-16a12 12 0 0 0 -12.28 4.145l-10.63 13.287v-17.9a123.633 123.633 0 0 0 72.5-73.405 44 44 0 0 0 25.711-84.113c21.685-5.729 36.079-10.482 37.584-10.984a12 12 0 0 0 -.885-23.026l-54.91-13.731v-38.622a60 60 0 0 0 -68.485-59.4l-55.515 7.933-55.515-7.93a60 60 0 0 0 -68.485 59.397v38.622l-54.91 13.727a12 12 0 0 0 -.885 23.026c1.5.5 15.9 5.255 37.584 10.984a44 44 0 0 0 25.711 84.113 123.629 123.629 0 0 0 72.5 73.405v17.9l-10.63-13.286a12 12 0 0 0 -12.28-4.145l-64 16a12 12 0 0 0 -3.45 21.818l.331.207-6.985 1.553a60 60 0 0 0 -46.986 58.567v89.5a12 12 0 0 0 24 0v-89.5a35.783 35.783 0 0 1 28.193-35.136l30.8-6.844 62.76 39.226a43.846 43.846 0 0 0 -1.753 12.254c0 .73.02 1.455.055 2.176-17.517 13.107-37.976 36.051-47.7 74.912a12 12 0 1 0 23.284 5.824c6.962-27.841 20.322-45.625 32.959-56.778q.8 1.08 1.658 2.108c-9.926 20.737-10.256 48.241-10.256 51.758a12 12 0 0 0 24 0c0-6.64 1.312-24.909 6.489-38.131a43.892 43.892 0 0 0 27.039-.006c5.153 13.079 6.458 31.018 6.472 38.149a12 12 0 0 0 24-.012c0-3.517-.33-31.021-10.259-51.758q.862-1.031 1.658-2.108c12.637 11.153 26 28.937 32.959 56.778a12 12 0 1 0 23.284-5.824c-9.721-38.861-30.18-61.805-47.7-74.912.035-.721.055-1.446.055-2.176a43.846 43.846 0 0 0 -1.749-12.254l62.76-39.226 30.8 6.844a35.783 35.783 0 0 1 28.192 35.136v89.5a12 12 0 0 0 24 0v-89.5a60.193 60.193 0 0 0 -13.2-37.539zm-46.8-156.961a20.057 20.057 0 0 1 -5.5-.776 124.876 124.876 0 0 0 1.5-19.224v-19.595a20 20 0 1 1 4 39.6zm-228-147.991a36 36 0 0 1 41.091-35.638l57.209 8.173a11.985 11.985 0 0 0 3.394 0l57.212-8.173a36 36 0 0 1 41.094 35.638v35.991h-200zm-10.522 59.991h221.044l19.078 4.77c-34.68 8.83-85.01 19.23-129.6 19.23s-94.92-10.4-129.6-19.23zm-17.478 88a20 20 0 1 1 4-39.595v19.595a124.971 124.971 0 0 0 1.5 19.224 20.05 20.05 0 0 1 -5.5.776zm98.472 171.4-68.163-42.6 29.131-7.283 39.545 49.429q-.258.219-.513.454zm48.737 38.117a19.951 19.951 0 1 1 .791-5.517 19.994 19.994 0 0 1 -.791 5.513zm-12.578-49.017a44.214 44.214 0 0 0 -13.261 0l-20.452-25.564a12 12 0 0 0 7.082-10.936v-21.65a122.037 122.037 0 0 0 40 0v21.65a11.993 11.993 0 0 0 7.083 10.936zm-6.631-80.5a102.046 102.046 0 0 1 -29.555-4.4 99.452 99.452 0 0 1 -67.785-72.6v-.015c-.006-.025-.011-.05-.017-.075a100.361 100.361 0 0 1 -2.643-22.91v-31.685c9.506 1.963 19.487 3.826 29.732 5.467a11.979 11.979 0 0 0 -5.732 10.218v16a12 12 0 0 0 24 0v-16a11.938 11.938 0 0 0 -3.062-7.986c14.477 1.925 29.248 3.3 43.743 3.791l-15.414 30.828a12 12 0 0 0 10.733 17.367h16a12 12 0 0 0 3.2-23.568l7.533-15.065a11.952 11.952 0 0 0 .5-9.56c14.523-.485 29.326-1.864 43.832-3.793a11.938 11.938 0 0 0 -3.065 7.986v16a12 12 0 0 0 24 0v-16a11.98 11.98 0 0 0 -5.731-10.218c10.244-1.641 20.225-3.5 29.731-5.467v31.685a100.355 100.355 0 0 1 -2.642 22.921l-.012.054-.008.037a99.442 99.442 0 0 1 -67.782 72.588 102.02 102.02 0 0 1 -29.556 4.4zm29.52 91.4c-.169-.153-.346-.3-.517-.447l39.557-49.445 29.131 7.283z"/></g></g></svg>